# xmcd CD database file
#
# Track frame offsets:
#	150
#	14402
#	26111
#	41951
#	53710
#	67592
#	85951
#	106135
#	119278
#	132463
#	143262
#	169800
#
# Disc length: 2276 seconds
#
# Revision: 0
# Processed by: cddbd v1.4PL0 Copyright (c) Steve Scherf et al.
# Submitted via: CDex 1.40Beta8
#
DISCID=9b08e20c
DTITLE=Mark Weigle - All That Matters
DYEAR=2000
DGENRE=Country
TTITLE0=A Good Day
TTITLE1=Shatter
TTITLE2=Other Houses
TTITLE3=John
TTITLE4=All of You
TTITLE5=Green
TTITLE6=All That Matters
TTITLE7=Celebrity
TTITLE8=Like So
TTITLE9=As It Turns Out
TTITLE10=I Confess (unplugged)
TTITLE11=Data Track
EXTD=YEAR: 2000 ID3G: 2
EXTT0=
EXTT1=
EXTT2=
EXTT3=
EXTT4=
EXTT5=
EXTT6=
EXTT7=
EXTT8=
EXTT9=
EXTT10=
EXTT11=
PLAYORDER=
